<svg preserveAspectRatio="none" overflow="visible" style="display: block;" width="32.1487" height="32.1487" viewBox="0 0 32.1487 32.1487" fill="none" xmlns="http://www.w3.org/2000/svg">
<g id="clarity:email-line" clip-path="url(#clip0_0_60)">
<path id="Vector" d="M28.5765 5.35831H3.57202C3.09833 5.35831 2.64405 5.54648 2.3091 5.88143C1.97415 6.21637 1.78598 6.67066 1.78598 7.14435V25.0047C1.78598 25.4784 1.97415 25.9327 2.3091 26.2676C2.64405 26.6026 3.09833 26.7907 3.57202 26.7907H28.5765C29.0502 26.7907 29.5045 26.6026 29.8394 26.2676C30.1744 25.9327 30.3626 25.4784 30.3626 25.0047V7.14435C30.3626 6.67066 30.1744 6.21637 29.8394 5.88143C29.5045 5.54648 29.0502 5.35831 28.5765 5.35831ZM27.2013 25.0047H5.05443L11.3056 18.5393L10.0196 17.298L3.57202 23.9688V8.50173L14.6722 19.5484C15.0069 19.881 15.4595 20.0677 15.9314 20.0677C16.4032 20.0677 16.8559 19.881 17.1905 19.5484L28.5765 8.2249V23.8527L22.0039 17.2801L20.7448 18.5393L27.2013 25.0047ZM4.74187 7.14435H27.1298L15.9314 18.2803L4.74187 7.14435Z" fill="url(#paint0_linear_0_60)"/>
<g id="Vector_2">
</g>
</g>
<defs>
<linearGradient id="paint0_linear_0_60" x1="2.07173" y1="14.027" x2="32.264" y2="22.5308" gradientUnits="userSpaceOnUse">
<stop offset="0.667924" stop-color="#FC0061"/>
</linearGradient>
<clipPath id="clip0_0_60">
<rect width="32.1487" height="32.1487" fill="white"/>
</clipPath>
</defs>
</svg>
