<svg preserveAspectRatio="none" overflow="visible" style="display: block;" width="17.4211" height="21.4188" viewBox="0 0 17.4211 21.4188" fill="none" xmlns="http://www.w3.org/2000/svg">
<g id="thesvg-color:pdf" clip-path="url(#clip0_0_11)">
<path id="Vector" d="M2.22523 0C0.998608 0 0 0.993412 0 2.2128V19.206C0 20.4252 0.998608 21.4188 2.22523 21.4188H15.2965C16.5233 21.4188 17.5217 20.4254 17.5217 19.206V5.23259C17.5217 5.23259 17.5568 4.82366 17.3779 4.42537C17.2689 4.1908 17.12 3.97671 16.9377 3.79254L16.9356 3.78977L13.6927 0.627966L13.6874 0.622415C13.6874 0.622415 13.4105 0.360126 13.0001 0.185036C12.5166 -0.0210478 12.0187 0.000693885 12.0187 0.000693885L12.0256 0L2.22523 0Z" fill="#FF2116"/>
<path id="Vector_2" d="M2.22447 0.726807H12.0323C12.0323 0.726807 12.4244 0.730507 12.711 0.853094C12.8833 0.928177 13.0431 1.02878 13.185 1.15146L16.4202 4.30633C16.4202 4.30633 16.6152 4.51079 16.7096 4.72127C16.7857 4.89104 16.7906 5.2019 16.7906 5.2019L16.7899 5.21763V19.2063C16.7914 19.4018 16.7538 19.5957 16.6793 19.7766C16.6047 19.9575 16.4947 20.1219 16.3557 20.2601C16.2166 20.3984 16.0513 20.5077 15.8693 20.5819C15.6874 20.656 15.4924 20.6934 15.2957 20.692H2.22447C2.02782 20.6934 1.83284 20.656 1.65088 20.5818C1.46892 20.5076 1.30362 20.3982 1.16459 20.2599C1.02556 20.1217 0.91559 19.9573 0.841068 19.7764C0.766547 19.5955 0.728967 19.4016 0.730515 19.2061V2.21288C0.728967 2.0174 0.76654 1.82357 0.841047 1.64267C0.915554 1.46177 1.02551 1.2974 1.16451 1.15913C1.30351 1.02086 1.46879 0.911453 1.65072 0.837273C1.83265 0.763093 2.0276 0.725621 2.22424 0.727038L2.22447 0.726807Z" fill="#F5F5F5"/>
<path id="Vector_3" d="M4.37814 12.7524C3.87512 12.2524 4.41933 11.5652 5.89653 10.8354L6.8258 10.3763L7.18807 9.58876C7.42259 9.07137 7.64278 8.54767 7.84838 8.01827L8.14689 7.2351L7.94121 6.65548C7.6883 5.94309 7.59826 4.87219 7.75857 4.48732C7.97588 3.96575 8.68784 4.01918 8.9696 4.57822C9.1897 5.0149 9.16714 5.8057 8.90632 6.80281L8.69226 7.62021L8.88072 7.93824C8.98426 8.1131 9.28696 8.52804 9.55313 8.86087L10.0538 9.47982L10.6767 9.39887C12.6551 9.14213 13.3328 9.57858 13.3328 10.2038C13.3328 10.9932 11.7793 11.0584 10.4747 10.1476C10.1811 9.94264 9.97961 9.73887 9.97961 9.73887C9.97961 9.73887 9.16225 9.90448 8.75974 10.0123C8.34442 10.1233 8.13735 10.1931 7.52893 10.3974C7.52893 10.3974 7.31534 10.7055 7.1762 10.9296C6.65875 11.7632 6.05451 12.4538 5.62291 12.7052C5.13966 12.9867 4.63315 13.0059 4.37814 12.7524ZM5.16758 12.4721C5.45051 12.2984 6.02287 11.6255 6.41887 11.0008L6.57941 10.748L5.84883 11.113C4.72086 11.6769 4.20481 12.2082 4.47307 12.5297C4.62384 12.7101 4.80416 12.6955 5.16758 12.4721ZM12.4952 10.4274C12.7719 10.2348 12.7316 9.84688 12.4189 9.6903C12.1758 9.5684 11.9796 9.54342 11.3472 9.55268C10.9587 9.57904 10.3342 9.65676 10.2281 9.68058C10.2281 9.68058 10.5715 9.9165 10.7237 10.003C10.9266 10.1182 11.4194 10.3319 11.7793 10.4413C12.1343 10.5493 12.3398 10.538 12.4952 10.4274ZM9.54894 9.2099C9.38142 9.03504 9.09687 8.67005 8.91632 8.39875C8.6804 8.09112 8.56197 7.87371 8.56197 7.87371C8.56197 7.87371 8.38956 8.42558 8.24787 8.75725L7.80626 9.84249L7.6783 10.0888C7.6783 10.0888 8.35885 9.86677 8.70529 9.77703C9.07197 9.68174 9.81651 9.53625 9.81651 9.53625L9.54894 9.2099ZM8.59943 5.42476C8.64224 5.06856 8.66015 4.71283 8.54522 4.53358C8.22576 4.18663 7.84023 4.47575 7.90561 5.30101C7.92772 5.57857 7.99705 6.05272 8.08965 6.34531L8.25834 6.87706L8.377 6.47645C8.44214 6.25626 8.54219 5.78303 8.59943 5.42476Z" fill="#FF2116"/>
<path id="Vector_4" d="M5.23047 15.0686H6.04713C6.30803 15.0686 6.51983 15.0935 6.68255 15.1433C6.8451 15.1913 6.98207 15.2992 7.09344 15.4671C7.2045 15.6338 7.26003 15.8348 7.26003 16.0701C7.26003 16.2864 7.21489 16.4723 7.12461 16.6275C7.03434 16.7828 6.91281 16.895 6.76002 16.9641C6.60848 17.0328 6.37473 17.0672 6.05876 17.0672H5.77631V18.3477H5.23047V15.0686ZM5.77607 15.4889V16.6322H6.04713C6.28879 16.6322 6.45554 16.5874 6.54737 16.498C6.64074 16.4083 6.68743 16.2625 6.68743 16.0606C6.68743 15.9101 6.6568 15.7885 6.59553 15.6956C6.53426 15.6011 6.46655 15.5435 6.39241 15.5226C6.31997 15.5001 6.20488 15.4889 6.04713 15.4889H5.77607ZM7.67813 15.0686H8.42011C8.77919 15.0686 9.06583 15.1318 9.28004 15.2583C9.49596 15.3847 9.65867 15.5729 9.76818 15.8229C9.87939 16.0727 9.935 16.3496 9.935 16.6537C9.935 16.9741 9.88506 17.2601 9.78516 17.5118C9.68682 17.7616 9.53536 17.9633 9.33076 18.1171C9.12788 18.2708 8.83798 18.3477 8.46105 18.3477H7.67813V15.0686ZM8.22397 15.5034V17.9126H8.45152C8.76872 17.9126 8.9989 17.8037 9.14207 17.5858C9.28555 17.3665 9.35729 17.0743 9.35729 16.7092C9.35729 15.9054 9.05536 15.5034 8.45152 15.5034H8.22397ZM10.4592 15.0686H12.291V15.5034H11.0053V16.4834H12.0348V16.9183H11.0057V18.3477H10.459L10.4592 15.0686Z" fill="#2C2C2C"/>
</g>
<defs>
<clipPath id="clip0_0_11">
<rect width="17.4211" height="21.4188" fill="white"/>
</clipPath>
</defs>
</svg>
